<svg width="482" height="290" viewBox="0 0 482 290" fill="none" xmlns="http://www.w3.org/2000/svg">
<g filter="url(#filter0_d_1235_246)">
<mask id="path-1-outside-1_1235_246" maskUnits="userSpaceOnUse" x="141" y="63" width="132" height="174" fill="black">
<rect fill="white" x="141" y="63" width="132" height="174"/>
<path d="M151.609 150.391C151.609 135.612 153.79 122.461 158.152 110.938C162.579 99.349 169.48 90.2018 178.855 83.4961C188.23 76.7904 200.079 73.4375 214.402 73.4375C224.168 73.4375 234.487 74.707 245.359 77.2461C248.875 79.3294 251.935 81.5104 254.539 83.7891C257.208 86.0026 259.747 88.7044 262.156 91.8945C262.156 96.5169 261.538 102.669 260.301 110.352C259.064 117.969 257.501 125.098 255.613 131.738C253.79 138.314 252.033 142.578 250.34 144.531C248.647 145.378 247.215 145.964 246.043 146.289C244.871 146.549 243.048 146.68 240.574 146.68C237.514 146.68 234.65 146.452 231.98 145.996C229.311 145.54 227.293 144.922 225.926 144.141L222.508 111.23C217.885 109.928 211.473 109.277 203.27 109.277C201.056 109.277 199.428 109.31 198.387 109.375C195.587 118.359 194.025 130.436 193.699 145.605C193.634 147.428 193.602 150.195 193.602 153.906C193.602 162.63 194.057 169.694 194.969 175.098C195.815 180.176 196.727 183.984 197.703 186.523C198.68 189.062 200.372 191.016 202.781 192.383C205.255 193.75 208.934 194.434 213.816 194.434C220.392 194.434 226.447 193.49 231.98 191.602C237.579 189.648 243.667 186.816 250.242 183.105C252.716 185.775 254.604 187.956 255.906 189.648C257.273 191.341 258.51 193.424 259.617 195.898C260.789 198.372 261.57 201.204 261.961 204.395C260.919 206.543 258.152 209.408 253.66 212.988C249.168 216.569 243.276 219.792 235.984 222.656C228.693 225.521 220.522 226.953 211.473 226.953C190.314 226.953 175.047 220.345 165.672 207.129C156.297 193.913 151.609 175 151.609 150.391Z"/>
</mask>
<path d="M151.609 150.391C151.609 135.612 153.79 122.461 158.152 110.938C162.579 99.349 169.48 90.2018 178.855 83.4961C188.23 76.7904 200.079 73.4375 214.402 73.4375C224.168 73.4375 234.487 74.707 245.359 77.2461C248.875 79.3294 251.935 81.5104 254.539 83.7891C257.208 86.0026 259.747 88.7044 262.156 91.8945C262.156 96.5169 261.538 102.669 260.301 110.352C259.064 117.969 257.501 125.098 255.613 131.738C253.79 138.314 252.033 142.578 250.34 144.531C248.647 145.378 247.215 145.964 246.043 146.289C244.871 146.549 243.048 146.68 240.574 146.68C237.514 146.68 234.65 146.452 231.98 145.996C229.311 145.54 227.293 144.922 225.926 144.141L222.508 111.23C217.885 109.928 211.473 109.277 203.27 109.277C201.056 109.277 199.428 109.31 198.387 109.375C195.587 118.359 194.025 130.436 193.699 145.605C193.634 147.428 193.602 150.195 193.602 153.906C193.602 162.63 194.057 169.694 194.969 175.098C195.815 180.176 196.727 183.984 197.703 186.523C198.68 189.062 200.372 191.016 202.781 192.383C205.255 193.75 208.934 194.434 213.816 194.434C220.392 194.434 226.447 193.49 231.98 191.602C237.579 189.648 243.667 186.816 250.242 183.105C252.716 185.775 254.604 187.956 255.906 189.648C257.273 191.341 258.51 193.424 259.617 195.898C260.789 198.372 261.57 201.204 261.961 204.395C260.919 206.543 258.152 209.408 253.66 212.988C249.168 216.569 243.276 219.792 235.984 222.656C228.693 225.521 220.522 226.953 211.473 226.953C190.314 226.953 175.047 220.345 165.672 207.129C156.297 193.913 151.609 175 151.609 150.391Z" fill="#00EEFF"/>
<path d="M158.152 110.938L148.811 107.369L148.805 107.383L148.8 107.397L158.152 110.938ZM245.359 77.2461L250.457 68.6432L249.133 67.8583L247.634 67.5081L245.359 77.2461ZM254.539 83.7891L247.954 91.3148L248.054 91.4021L248.156 91.4866L254.539 83.7891ZM262.156 91.8945H272.156V88.5431L270.137 85.8685L262.156 91.8945ZM260.301 110.352L270.171 111.954L270.174 111.941L260.301 110.352ZM255.613 131.738L245.994 129.004L245.986 129.035L245.977 129.067L255.613 131.738ZM250.34 144.531L254.812 153.476L256.593 152.585L257.897 151.081L250.34 144.531ZM246.043 146.289L248.212 156.051L248.467 155.994L248.719 155.924L246.043 146.289ZM225.926 144.141L215.979 145.174L216.509 150.277L220.964 152.823L225.926 144.141ZM222.508 111.23L232.454 110.197L231.753 103.446L225.219 101.605L222.508 111.23ZM198.387 109.375L197.763 99.3945L190.889 99.8241L188.839 106.4L198.387 109.375ZM193.699 145.605L203.693 145.962L203.695 145.891L203.697 145.82L193.699 145.605ZM194.969 175.098L204.833 173.454L204.831 173.444L204.829 173.434L194.969 175.098ZM202.781 192.383L197.845 201.08L197.895 201.108L197.944 201.135L202.781 192.383ZM231.98 191.602L235.209 201.066L235.242 201.055L235.274 201.044L231.98 191.602ZM250.242 183.105L257.576 176.308L252.207 170.514L245.327 174.397L250.242 183.105ZM255.906 189.648L247.98 195.746L248.052 195.84L248.127 195.932L255.906 189.648ZM259.617 195.898L250.489 199.982L250.533 200.081L250.58 200.179L259.617 195.898ZM261.961 204.395L270.959 208.757L272.245 206.105L271.887 203.179L261.961 204.395ZM253.66 212.988L247.427 205.169L253.66 212.988ZM161.609 150.391C161.609 136.586 163.647 124.669 167.505 114.478L148.8 107.397C143.934 120.253 141.609 134.637 141.609 150.391H161.609ZM167.494 114.506C171.276 104.606 177.019 97.1048 184.673 91.6296L173.038 75.3626C161.942 83.2988 153.883 94.0921 148.811 107.369L167.494 114.506ZM184.673 91.6296C191.977 86.405 201.654 83.4375 214.402 83.4375V63.4375C198.505 63.4375 184.483 67.1757 173.038 75.3626L184.673 91.6296ZM214.402 83.4375C223.302 83.4375 232.854 84.5948 243.085 86.9841L247.634 67.5081C236.12 64.8192 225.033 63.4375 214.402 63.4375V83.4375ZM240.261 85.849C243.341 87.674 245.885 89.5047 247.954 91.3148L261.124 76.2633C257.984 73.5161 254.409 70.9848 250.457 68.6432L240.261 85.849ZM248.156 91.4866C250.147 93.1384 252.164 95.2559 254.176 97.9206L270.137 85.8685C267.331 82.1529 264.269 78.8668 260.922 76.0915L248.156 91.4866ZM252.156 91.8945C252.156 95.7467 251.629 101.302 250.428 108.762L270.174 111.941C271.446 104.037 272.156 97.2871 272.156 91.8945H252.156ZM250.43 108.749C249.248 116.028 247.765 122.775 245.994 129.004L265.232 134.473C267.237 127.42 268.88 119.91 270.171 111.954L250.43 108.749ZM245.977 129.067C245.127 132.132 244.354 134.427 243.682 136.057C242.945 137.845 242.574 138.223 242.783 137.982L257.897 151.081C259.799 148.886 261.152 146.156 262.173 143.679C263.259 141.045 264.277 137.92 265.25 134.41L245.977 129.067ZM245.868 135.587C244.471 136.285 243.677 136.568 243.367 136.654L248.719 155.924C250.752 155.36 252.824 154.47 254.812 153.476L245.868 135.587ZM243.874 136.527C243.946 136.511 243.731 136.561 243.084 136.607C242.476 136.651 241.65 136.68 240.574 136.68V156.68C243.18 156.68 245.917 156.561 248.212 156.051L243.874 136.527ZM240.574 136.68C238.007 136.68 235.711 136.488 233.663 136.139L230.298 155.853C233.589 156.415 237.022 156.68 240.574 156.68V136.68ZM233.663 136.139C232.639 135.964 231.9 135.784 231.395 135.629C230.87 135.469 230.753 135.382 230.887 135.458L220.964 152.823C223.824 154.457 227.181 155.321 230.298 155.853L233.663 136.139ZM235.872 143.108L232.454 110.197L212.561 112.263L215.979 145.174L235.872 143.108ZM225.219 101.605C219.308 99.9399 211.84 99.2773 203.27 99.2773V119.277C211.105 119.277 216.463 119.917 219.796 120.856L225.219 101.605ZM203.27 99.2773C201.024 99.2773 199.135 99.3087 197.763 99.3945L199.011 119.356C199.722 119.311 201.088 119.277 203.27 119.277V99.2773ZM188.839 106.4C185.644 116.654 184.036 129.783 183.702 145.391L203.697 145.82C204.013 131.09 205.53 120.064 207.934 112.35L188.839 106.4ZM183.706 145.249C183.634 147.258 183.602 150.171 183.602 153.906H203.602C203.602 150.219 203.634 147.599 203.693 145.962L183.706 145.249ZM183.602 153.906C183.602 162.902 184.066 170.584 185.108 176.761L204.829 173.434C204.048 168.804 203.602 162.358 203.602 153.906H183.602ZM185.105 176.742C185.982 182.008 187.024 186.614 188.37 190.113L207.037 182.934C206.429 181.354 205.648 178.344 204.833 173.454L185.105 176.742ZM188.37 190.113C190.193 194.855 193.464 198.593 197.845 201.08L207.717 183.686C207.281 183.438 207.166 183.27 207.037 182.934L188.37 190.113ZM197.944 201.135C202.616 203.717 208.313 204.434 213.816 204.434V184.434C209.555 184.434 207.894 183.783 207.618 183.63L197.944 201.135ZM213.816 204.434C221.355 204.434 228.515 203.35 235.209 201.066L228.751 182.137C224.378 183.629 219.429 184.434 213.816 184.434V204.434ZM235.274 201.044C241.562 198.85 248.197 195.742 255.157 191.814L245.327 174.397C239.137 177.89 233.597 180.447 228.687 182.16L235.274 201.044ZM242.908 189.903C245.296 192.48 246.949 194.405 247.98 195.746L263.832 183.551C262.259 181.506 260.136 179.069 257.576 176.308L242.908 189.903ZM248.127 195.932C248.838 196.812 249.653 198.112 250.489 199.982L268.745 191.815C267.368 188.737 265.709 185.87 263.686 183.365L248.127 195.932ZM250.58 200.179C251.221 201.534 251.752 203.302 252.035 205.61L271.887 203.179C271.388 199.107 270.357 195.211 268.655 191.618L250.58 200.179ZM252.963 200.032C253.109 199.73 252.982 200.099 251.912 201.207C250.928 202.225 249.469 203.541 247.427 205.169L259.893 220.808C264.351 217.255 268.824 213.161 270.959 208.757L252.963 200.032ZM247.427 205.169C243.94 207.948 239.004 210.726 232.328 213.349L239.641 231.964C247.548 228.857 254.396 225.19 259.893 220.808L247.427 205.169ZM232.328 213.349C226.367 215.691 219.462 216.953 211.473 216.953V236.953C221.582 236.953 231.018 235.351 239.641 231.964L232.328 213.349ZM211.473 216.953C192.461 216.953 180.774 211.134 173.828 201.343L157.516 212.915C169.32 229.556 188.167 236.953 211.473 236.953V216.953ZM173.828 201.343C166.128 190.488 161.609 173.938 161.609 150.391H141.609C141.609 176.062 146.465 197.337 157.516 212.915L173.828 201.343Z" fill="#0B1531" mask="url(#path-1-outside-1_1235_246)"/>
</g>
<g filter="url(#filter1_d_1235_246)">
<mask id="path-3-outside-2_1235_246" maskUnits="userSpaceOnUse" x="53" y="36" width="117" height="214" fill="black">
<rect fill="white" x="53" y="36" width="117" height="214"/>
<path d="M63.7773 182.547C63.7773 172.13 66.5443 163.634 72.0781 157.059C73.901 156.082 76.0495 155.333 78.5234 154.812C80.9974 154.227 83.6016 153.934 86.3359 153.934C91.1536 153.934 95.4831 154.78 99.3242 156.473C99.3242 158.361 99.3568 159.76 99.4219 160.672C99.487 167.247 99.6497 172.879 99.9102 177.566C100.171 182.189 100.757 187.332 101.668 192.996C102.645 198.66 104.109 204.552 106.062 210.672C107.56 211.062 109.578 211.258 112.117 211.258L115.633 211.16C116.219 211.095 117.065 211.062 118.172 211.062L119.637 211.16C119.832 206.017 119.93 199.441 119.93 191.434C119.93 175.939 119.604 157.352 118.953 135.672C118.497 120.503 118.27 108.035 118.27 98.2695C118.27 89.4805 118.465 82.7096 118.855 77.957C111.889 78.2174 106.193 78.543 101.766 78.9336L101.473 106.375C97.5664 107.352 94.1159 108.003 91.1211 108.328C88.1914 108.654 84.9688 108.784 81.4531 108.719C79.8255 107.417 78.0677 104.943 76.1797 101.297C74.3568 97.5859 72.8268 93.3867 71.5898 88.6992C70.3529 83.9466 69.7344 79.4544 69.7344 75.2227C69.7344 69.3633 70.776 64.4805 72.8594 60.5742C75.0078 56.668 78.1979 53.8359 82.4297 52.0781C84.6432 50.9062 87.1823 50.0273 90.0469 49.4414C92.9766 48.7904 96.6224 48.2044 100.984 47.6836C105.672 47.0977 110.88 46.8047 116.609 46.8047C122.664 46.8047 128.947 47.0977 135.457 47.6836C142.033 48.2044 148.152 48.9531 153.816 49.9297L158.992 55.9844C158.276 79.487 157.69 97.0651 157.234 108.719C156.974 113.536 156.681 121.87 156.355 133.719C155.704 152.078 155.118 167.312 154.598 179.422C154.077 191.466 153.523 200.158 152.938 205.496C152.352 210.77 151.538 215.262 150.496 218.973C149.52 222.749 147.99 226.036 145.906 228.836C143.237 232.352 139.624 234.956 135.066 236.648C130.574 238.341 125.496 239.188 119.832 239.188C110.262 239.188 102.156 238.016 95.5156 235.672C88.875 233.328 83.1784 229.389 78.4258 223.855C73.7383 218.387 69.832 210.9 66.707 201.395C64.7539 195.275 63.7773 188.992 63.7773 182.547Z"/>
</mask>
<path d="M63.7773 182.547C63.7773 172.13 66.5443 163.634 72.0781 157.059C73.901 156.082 76.0495 155.333 78.5234 154.812C80.9974 154.227 83.6016 153.934 86.3359 153.934C91.1536 153.934 95.4831 154.78 99.3242 156.473C99.3242 158.361 99.3568 159.76 99.4219 160.672C99.487 167.247 99.6497 172.879 99.9102 177.566C100.171 182.189 100.757 187.332 101.668 192.996C102.645 198.66 104.109 204.552 106.062 210.672C107.56 211.062 109.578 211.258 112.117 211.258L115.633 211.16C116.219 211.095 117.065 211.062 118.172 211.062L119.637 211.16C119.832 206.017 119.93 199.441 119.93 191.434C119.93 175.939 119.604 157.352 118.953 135.672C118.497 120.503 118.27 108.035 118.27 98.2695C118.27 89.4805 118.465 82.7096 118.855 77.957C111.889 78.2174 106.193 78.543 101.766 78.9336L101.473 106.375C97.5664 107.352 94.1159 108.003 91.1211 108.328C88.1914 108.654 84.9688 108.784 81.4531 108.719C79.8255 107.417 78.0677 104.943 76.1797 101.297C74.3568 97.5859 72.8268 93.3867 71.5898 88.6992C70.3529 83.9466 69.7344 79.4544 69.7344 75.2227C69.7344 69.3633 70.776 64.4805 72.8594 60.5742C75.0078 56.668 78.1979 53.8359 82.4297 52.0781C84.6432 50.9062 87.1823 50.0273 90.0469 49.4414C92.9766 48.7904 96.6224 48.2044 100.984 47.6836C105.672 47.0977 110.88 46.8047 116.609 46.8047C122.664 46.8047 128.947 47.0977 135.457 47.6836C142.033 48.2044 148.152 48.9531 153.816 49.9297L158.992 55.9844C158.276 79.487 157.69 97.0651 157.234 108.719C156.974 113.536 156.681 121.87 156.355 133.719C155.704 152.078 155.118 167.312 154.598 179.422C154.077 191.466 153.523 200.158 152.938 205.496C152.352 210.77 151.538 215.262 150.496 218.973C149.52 222.749 147.99 226.036 145.906 228.836C143.237 232.352 139.624 234.956 135.066 236.648C130.574 238.341 125.496 239.188 119.832 239.188C110.262 239.188 102.156 238.016 95.5156 235.672C88.875 233.328 83.1784 229.389 78.4258 223.855C73.7383 218.387 69.832 210.9 66.707 201.395C64.7539 195.275 63.7773 188.992 63.7773 182.547Z" fill="#00EEFF"/>
<path d="M72.0781 157.059L67.3559 148.244L65.6634 149.15L64.427 150.62L72.0781 157.059ZM78.5234 154.812L80.5835 164.598L80.7062 164.572L80.8281 164.543L78.5234 154.812ZM99.3242 156.473H109.324V149.952L103.357 147.322L99.3242 156.473ZM99.4219 160.672L109.421 160.573L109.418 160.266L109.396 159.959L99.4219 160.672ZM99.9102 177.566L89.9255 178.121L89.926 178.129L99.9102 177.566ZM101.668 192.996L91.795 194.585L91.8039 194.64L91.8134 194.695L101.668 192.996ZM106.062 210.672L96.5359 213.712L98.2101 218.958L103.538 220.348L106.062 210.672ZM112.117 211.258V221.258H112.256L112.395 221.254L112.117 211.258ZM115.633 211.16L115.91 221.156L116.325 221.145L116.737 221.099L115.633 211.16ZM118.172 211.062L118.837 201.085L118.505 201.062H118.172V211.062ZM119.637 211.16L118.972 221.138L129.239 221.823L129.63 211.54L119.637 211.16ZM118.953 135.672L128.949 135.372L128.949 135.372L118.953 135.672ZM118.855 77.957L128.822 78.7762L129.745 67.543L118.482 67.964L118.855 77.957ZM101.766 78.9336L100.887 68.9723L91.8629 69.7685L91.7662 78.8268L101.766 78.9336ZM101.473 106.375L103.898 116.076L111.39 114.204L111.472 106.482L101.473 106.375ZM91.1211 108.328L90.0405 98.3867L90.0286 98.388L90.0168 98.3893L91.1211 108.328ZM81.4531 108.719L75.2062 116.527L77.8644 118.654L81.268 118.717L81.4531 108.719ZM76.1797 101.297L67.2041 105.706L67.2509 105.801L67.2997 105.895L76.1797 101.297ZM71.5898 88.6992L61.9123 91.218L61.9165 91.2344L61.9208 91.2508L71.5898 88.6992ZM72.8594 60.5742L64.0972 55.755L64.0662 55.8115L64.0358 55.8683L72.8594 60.5742ZM82.4297 52.0781L86.2658 61.3131L86.6964 61.1342L87.1086 60.916L82.4297 52.0781ZM90.0469 49.4414L92.0508 59.2386L92.1337 59.2216L92.2162 59.2033L90.0469 49.4414ZM100.984 47.6836L102.17 57.6131L102.197 57.6098L102.225 57.6064L100.984 47.6836ZM135.457 47.6836L134.561 57.6433L134.614 57.6481L134.667 57.6524L135.457 47.6836ZM153.816 49.9297L161.418 43.4319L159.072 40.6883L155.515 40.0751L153.816 49.9297ZM158.992 55.9844L168.988 56.2889L169.105 52.425L166.593 49.4866L158.992 55.9844ZM157.234 108.719L167.22 109.259L167.224 109.184L167.227 109.11L157.234 108.719ZM156.355 133.719L166.349 134.073L166.351 134.033L166.352 133.993L156.355 133.719ZM154.598 179.422L164.588 179.854L164.588 179.852L154.598 179.422ZM152.938 205.496L162.876 206.6L162.878 206.587L152.938 205.496ZM150.496 218.973L140.868 216.27L140.84 216.369L140.815 216.469L150.496 218.973ZM145.906 228.836L153.871 234.883L153.9 234.845L153.929 234.806L145.906 228.836ZM135.066 236.648L131.585 227.274L131.562 227.282L131.54 227.291L135.066 236.648ZM78.4258 223.855L70.8332 230.363L70.8395 230.371L78.4258 223.855ZM66.707 201.395L57.1804 204.435L57.1937 204.476L57.2073 204.518L66.707 201.395ZM73.7773 182.547C73.7773 173.966 76.0165 167.909 79.7292 163.498L64.427 150.62C57.0721 159.359 53.7773 170.294 53.7773 182.547H73.7773ZM76.8003 165.873C77.6249 165.432 78.8402 164.965 80.5835 164.598L76.4633 145.027C73.2587 145.702 70.1772 146.732 67.3559 148.244L76.8003 165.873ZM80.8281 164.543C82.4924 164.149 84.3195 163.934 86.3359 163.934V143.934C82.8836 143.934 79.5024 144.304 76.2188 145.082L80.8281 164.543ZM86.3359 163.934C89.9692 163.934 92.8955 164.568 95.2916 165.624L103.357 147.322C98.0706 144.992 92.3381 143.934 86.3359 143.934V163.934ZM89.3242 156.473C89.3242 158.404 89.3555 160.099 89.4473 161.384L109.396 159.959C109.358 159.421 109.324 158.317 109.324 156.473H89.3242ZM89.4224 160.771C89.4884 167.443 89.6541 173.235 89.9256 178.121L109.895 177.012C109.645 172.522 109.486 167.051 109.421 160.573L89.4224 160.771ZM89.926 178.129C90.2097 183.165 90.8412 188.657 91.795 194.585L111.541 191.407C110.672 186.007 110.131 181.213 109.894 177.004L89.926 178.129ZM91.8134 194.695C92.8767 200.863 94.4587 207.204 96.5359 213.712L115.589 207.631C113.76 201.9 112.412 196.458 111.523 191.297L91.8134 194.695ZM103.538 220.348C106.215 221.046 109.195 221.258 112.117 221.258V201.258C109.961 201.258 108.904 201.079 108.587 200.996L103.538 220.348ZM112.395 221.254L115.91 221.156L115.355 201.164L111.84 201.262L112.395 221.254ZM116.737 221.099C116.713 221.102 116.815 221.09 117.091 221.08C117.355 221.069 117.71 221.062 118.172 221.062V201.062C116.956 201.062 115.671 201.094 114.528 201.221L116.737 221.099ZM117.507 221.04L118.972 221.138L120.302 201.182L118.837 201.085L117.507 221.04ZM129.63 211.54C129.831 206.221 129.93 199.507 129.93 191.434H109.93C109.93 199.376 109.833 205.813 109.644 210.781L129.63 211.54ZM129.93 191.434C129.93 175.808 129.602 157.115 128.949 135.372L108.958 135.972C109.607 157.588 109.93 176.069 109.93 191.434H129.93ZM128.949 135.372C128.494 120.254 128.27 107.896 128.27 98.2695H108.27C108.27 108.174 108.5 120.751 108.958 135.972L128.949 135.372ZM128.27 98.2695C128.27 89.5675 128.465 83.1185 128.822 78.7762L108.889 77.1379C108.465 82.3008 108.27 89.3935 108.27 98.2695H128.27ZM118.482 67.964C111.43 68.2276 105.548 68.561 100.887 68.9723L102.645 88.8949C106.837 88.5249 112.349 88.2073 119.229 87.9501L118.482 67.964ZM91.7662 78.8268L91.4732 106.268L111.472 106.482L111.765 79.0403L91.7662 78.8268ZM99.0473 96.6736C95.4462 97.5738 92.4605 98.1236 90.0405 98.3867L92.2017 118.27C95.7713 117.882 99.6866 117.129 103.898 116.076L99.0473 96.6736ZM90.0168 98.3893C87.5874 98.6592 84.8026 98.7791 81.6383 98.7205L81.268 118.717C85.1349 118.789 88.7954 118.648 92.2254 118.267L90.0168 98.3893ZM87.7001 100.91C87.8598 101.038 87.6281 100.886 87.0659 100.095C86.5325 99.3439 85.8585 98.241 85.0596 96.6983L67.2997 105.895C69.3272 109.811 71.8702 113.859 75.2062 116.527L87.7001 100.91ZM85.1552 96.8878C83.6693 93.863 82.3549 90.3012 81.2588 86.1477L61.9208 91.2508C63.2987 96.4723 65.0442 101.309 67.2041 105.706L85.1552 96.8878ZM81.2674 86.1804C80.2111 82.122 79.7344 78.4815 79.7344 75.2227H59.7344C59.7344 80.4274 60.4946 85.7712 61.9123 91.218L81.2674 86.1804ZM79.7344 75.2227C79.7344 70.4933 80.5813 67.3455 81.6829 65.2801L64.0358 55.8683C60.9707 61.6154 59.7344 68.2333 59.7344 75.2227H79.7344ZM81.6215 65.3934C82.6439 63.5346 84.0662 62.2268 86.2658 61.3131L78.5936 42.8432C72.3297 45.4451 67.3717 49.8014 64.0972 55.755L81.6215 65.3934ZM87.1086 60.916C88.3538 60.2568 89.9671 59.6648 92.0508 59.2386L88.0429 39.6443C84.3975 40.3899 80.9327 41.5557 77.7508 43.2402L87.1086 60.916ZM92.2162 59.2033C94.71 58.6491 98.0021 58.1107 102.17 57.6131L99.7988 37.7541C95.2427 38.2981 91.2432 38.9316 87.8776 39.6795L92.2162 59.2033ZM102.225 57.6064C106.425 57.0813 111.211 56.8047 116.609 56.8047V36.8047C110.549 36.8047 104.919 37.114 99.744 37.7608L102.225 57.6064ZM116.609 56.8047C122.342 56.8047 128.325 57.0821 134.561 57.6433L136.353 37.7238C129.568 37.1132 122.986 36.8047 116.609 36.8047V56.8047ZM134.667 57.6524C140.982 58.1525 146.795 58.8666 152.117 59.7843L155.515 40.0751C149.51 39.0397 143.083 38.2563 136.247 37.7148L134.667 57.6524ZM146.215 56.4275L151.391 62.4822L166.593 49.4866L161.418 43.4319L146.215 56.4275ZM148.997 55.6798C148.281 79.1763 147.696 96.7192 147.242 108.328L167.227 109.11C167.684 97.411 168.271 79.7977 168.988 56.2889L148.997 55.6798ZM147.249 108.179C146.981 113.144 146.685 121.597 146.359 133.444L166.352 133.993C166.677 122.143 166.967 113.929 167.22 109.259L147.249 108.179ZM146.362 133.364C145.711 151.71 145.126 166.917 144.607 178.992L164.588 179.852C165.111 167.708 165.698 152.446 166.349 134.073L146.362 133.364ZM144.607 178.99C144.087 191.015 143.544 199.422 142.997 204.405L162.878 206.587C163.503 200.894 164.067 191.917 164.588 179.854L144.607 178.99ZM142.999 204.392C142.452 209.311 141.72 213.236 140.868 216.27L160.124 221.675C161.356 217.287 162.251 212.228 162.876 206.6L142.999 204.392ZM140.815 216.469C140.124 219.14 139.11 221.219 137.884 222.866L153.929 234.806C156.87 230.854 158.915 226.357 160.178 221.476L140.815 216.469ZM137.942 222.789C136.535 224.641 134.549 226.173 131.585 227.274L138.548 246.023C144.698 243.738 149.939 240.062 153.871 234.883L137.942 222.789ZM131.54 227.291C128.358 228.49 124.504 229.188 119.832 229.188V249.188C126.488 249.188 132.79 248.192 138.592 246.006L131.54 227.291ZM119.832 229.188C111.016 229.188 104.108 228.1 98.8438 226.242L92.1874 245.102C100.204 247.931 109.507 249.188 119.832 249.188V229.188ZM98.8438 226.242C93.9138 224.502 89.6674 221.596 86.012 217.34L70.8395 230.371C76.6894 237.182 83.8362 242.154 92.1874 245.102L98.8438 226.242ZM86.0183 217.348C82.4437 213.177 79.0714 206.985 76.2068 198.271L57.2073 204.518C60.5926 214.815 65.0329 223.596 70.8332 230.363L86.0183 217.348ZM76.2336 198.354C74.5953 193.221 73.7773 187.964 73.7773 182.547H53.7773C53.7773 190.021 54.9125 197.329 57.1804 204.435L76.2336 198.354Z" fill="#0B1531" mask="url(#path-3-outside-2_1235_246)"/>
</g>
<g filter="url(#filter2_di_1235_246)">
<mask id="path-5-outside-3_1235_246" maskUnits="userSpaceOnUse" x="242" y="187" width="71" height="62" fill="black">
<rect fill="white" x="242" y="187" width="71" height="62"/>
<path d="M277.441 197.84C286.035 197.84 292.285 199.728 296.191 203.504C300.163 207.215 302.148 211.902 302.148 217.566C302.148 221.342 300.944 224.891 298.535 228.211C296.191 231.466 293.099 234.07 289.258 236.023C285.482 237.977 281.543 238.953 277.441 238.953C273.34 238.953 269.368 237.977 265.527 236.023C261.751 234.07 258.659 231.466 256.25 228.211C253.906 224.891 252.734 221.342 252.734 217.566C252.734 211.902 254.688 207.215 258.594 203.504C262.565 199.728 268.848 197.84 277.441 197.84Z"/>
</mask>
<path d="M277.441 197.84C286.035 197.84 292.285 199.728 296.191 203.504C300.163 207.215 302.148 211.902 302.148 217.566C302.148 221.342 300.944 224.891 298.535 228.211C296.191 231.466 293.099 234.07 289.258 236.023C285.482 237.977 281.543 238.953 277.441 238.953C273.34 238.953 269.368 237.977 265.527 236.023C261.751 234.07 258.659 231.466 256.25 228.211C253.906 224.891 252.734 221.342 252.734 217.566C252.734 211.902 254.688 207.215 258.594 203.504C262.565 199.728 268.848 197.84 277.441 197.84Z" fill="#00EEFF"/>
<path d="M296.191 203.504L289.241 210.694L289.302 210.753L289.364 210.81L296.191 203.504ZM298.535 228.211L290.441 222.339L290.43 222.353L290.42 222.368L298.535 228.211ZM289.258 236.023L284.725 227.11L284.694 227.125L284.664 227.141L289.258 236.023ZM265.527 236.023L260.933 244.906L260.964 244.922L260.995 244.937L265.527 236.023ZM256.25 228.211L248.08 233.978L248.145 234.069L248.212 234.159L256.25 228.211ZM258.594 203.504L265.481 210.754L265.484 210.751L258.594 203.504ZM277.441 207.84C284.893 207.84 288.032 209.525 289.241 210.694L303.142 196.314C296.538 189.93 287.177 187.84 277.441 187.84V207.84ZM289.364 210.81C291.217 212.542 292.148 214.541 292.148 217.566H312.148C312.148 209.264 309.108 201.887 303.019 196.197L289.364 210.81ZM292.148 217.566C292.148 219.049 291.724 220.57 290.441 222.339L306.629 234.083C310.164 229.211 312.148 223.636 312.148 217.566H292.148ZM290.42 222.368C289.077 224.233 287.253 225.825 284.725 227.11L293.79 244.937C298.945 242.316 303.306 238.699 306.65 234.054L290.42 222.368ZM284.664 227.141C282.254 228.388 279.885 228.953 277.441 228.953V248.953C283.201 248.953 288.71 247.566 293.852 244.906L284.664 227.141ZM277.441 228.953C274.995 228.953 272.57 228.386 270.06 227.11L260.995 244.937C266.167 247.567 271.684 248.953 277.441 248.953V228.953ZM270.122 227.141C267.633 225.854 265.743 224.228 264.288 222.263L248.212 234.159C251.575 238.704 255.869 242.286 260.933 244.906L270.122 227.141ZM264.42 222.444C263.171 220.675 262.734 219.117 262.734 217.566H242.734C242.734 223.568 244.641 229.106 248.08 233.978L264.42 222.444ZM262.734 217.566C262.734 214.486 263.674 212.471 265.481 210.754L251.706 196.254C245.701 201.959 242.734 209.319 242.734 217.566H262.734ZM265.484 210.751C266.782 209.517 270.009 207.84 277.441 207.84V187.84C267.687 187.84 258.348 189.938 251.703 196.257L265.484 210.751Z" fill="#0B1531" mask="url(#path-5-outside-3_1235_246)"/>
</g>
<defs>
<filter id="filter0_d_1235_246" x="151.609" y="73.4375" width="124.547" height="162.516" filterUnits="userSpaceOnUse" color-interpolation-filters="sRGB">
<feFlood flood-opacity="0" result="BackgroundImageFix"/>
<feColorMatrix in="SourceAlpha" type="matrix" values="0 0 0 0 0 0 0 0 0 0 0 0 0 0 0 0 0 0 127 0" result="hardAlpha"/>
<feOffset dx="10" dy="5"/>
<feGaussianBlur stdDeviation="2"/>
<feComposite in2="hardAlpha" operator="out"/>
<feColorMatrix type="matrix" values="0 0 0 0 0 0 0 0 0 0 0 0 0 0 0 0 0 0 0.25 0"/>
<feBlend mode="normal" in2="BackgroundImageFix" result="effect1_dropShadow_1235_246"/>
<feBlend mode="normal" in="SourceGraphic" in2="effect1_dropShadow_1235_246" result="shape"/>
</filter>
<filter id="filter1_d_1235_246" x="63.7773" y="46.8047" width="109.215" height="201.383" filterUnits="userSpaceOnUse" color-interpolation-filters="sRGB">
<feFlood flood-opacity="0" result="BackgroundImageFix"/>
<feColorMatrix in="SourceAlpha" type="matrix" values="0 0 0 0 0 0 0 0 0 0 0 0 0 0 0 0 0 0 127 0" result="hardAlpha"/>
<feOffset dx="10" dy="5"/>
<feGaussianBlur stdDeviation="2"/>
<feComposite in2="hardAlpha" operator="out"/>
<feColorMatrix type="matrix" values="0 0 0 0 0 0 0 0 0 0 0 0 0 0 0 0 0 0 0.25 0"/>
<feBlend mode="normal" in2="BackgroundImageFix" result="effect1_dropShadow_1235_246"/>
<feBlend mode="normal" in="SourceGraphic" in2="effect1_dropShadow_1235_246" result="shape"/>
</filter>
<filter id="filter2_di_1235_246" x="252.734" y="197.84" width="63.4141" height="50.1133" filterUnits="userSpaceOnUse" color-interpolation-filters="sRGB">
<feFlood flood-opacity="0" result="BackgroundImageFix"/>
<feColorMatrix in="SourceAlpha" type="matrix" values="0 0 0 0 0 0 0 0 0 0 0 0 0 0 0 0 0 0 127 0" result="hardAlpha"/>
<feOffset dx="10" dy="5"/>
<feGaussianBlur stdDeviation="2"/>
<feComposite in2="hardAlpha" operator="out"/>
<feColorMatrix type="matrix" values="0 0 0 0 0 0 0 0 0 0 0 0 0 0 0 0 0 0 0.25 0"/>
<feBlend mode="normal" in2="BackgroundImageFix" result="effect1_dropShadow_1235_246"/>
<feBlend mode="normal" in="SourceGraphic" in2="effect1_dropShadow_1235_246" result="shape"/>
<feColorMatrix in="SourceAlpha" type="matrix" values="0 0 0 0 0 0 0 0 0 0 0 0 0 0 0 0 0 0 127 0" result="hardAlpha"/>
<feOffset dx="10" dy="5"/>
<feGaussianBlur stdDeviation="0.5"/>
<feComposite in2="hardAlpha" operator="arithmetic" k2="-1" k3="1"/>
<feColorMatrix type="matrix" values="0 0 0 0 0 0 0 0 0 0 0 0 0 0 0 0 0 0 0.25 0"/>
<feBlend mode="normal" in2="shape" result="effect2_innerShadow_1235_246"/>
</filter>
</defs>
</svg>
